<svg version="1.1" xmlns="http://www.w3.org/2000/svg" xmlns:xlink="http://www.w3.org/1999/xlink" width="129" height="129" viewBox="0,0,129,129"><defs><linearGradient x1="240" y1="244.5" x2="240" y2="115.5" gradientUnits="userSpaceOnUse" id="color-1"><stop offset="0" stop-color="#001279"/><stop offset="1" stop-color="#001279" stop-opacity="0"/></linearGradient><linearGradient x1="240" y1="244.5" x2="240" y2="115.5" gradientUnits="userSpaceOnUse" id="color-2"><stop offset="0" stop-color="#001170" stop-opacity="0.27419"/><stop offset="1" stop-color="#001170" stop-opacity="0"/></linearGradient><linearGradient x1="240.00001" y1="161.80471" x2="240.00001" y2="197.19541" gradientUnits="userSpaceOnUse" id="color-3"><stop offset="0" stop-color="#009bc5"/><stop offset="1" stop-color="#0080c5"/></linearGradient><linearGradient x1="239.99997" y1="201.9" x2="239.99997" y2="207.1" gradientUnits="userSpaceOnUse" id="color-4"><stop offset="0" stop-color="#009bc5"/><stop offset="1" stop-color="#0080c5"/></linearGradient><linearGradient x1="239.99997" y1="152.9" x2="239.99997" y2="158.1" gradientUnits="userSpaceOnUse" id="color-5"><stop offset="0" stop-color="#009bc5"/><stop offset="1" stop-color="#0080c5"/></linearGradient><linearGradient x1="242.20001" y1="161.80471" x2="242.20001" y2="197.19541" gradientUnits="userSpaceOnUse" id="color-6"><stop offset="0" stop-color="#00c8ff"/><stop offset="1" stop-color="#00a4ff"/></linearGradient><linearGradient x1="242.19997" y1="201.9" x2="242.19997" y2="207.1" gradientUnits="userSpaceOnUse" id="color-7"><stop offset="0" stop-color="#00c8ff"/><stop offset="1" stop-color="#00a4ff"/></linearGradient><linearGradient x1="242.19997" y1="152.9" x2="242.19997" y2="158.1" gradientUnits="userSpaceOnUse" id="color-8"><stop offset="0" stop-color="#00c8ff"/><stop offset="1" stop-color="#00a4ff"/></linearGradient></defs><g transform="translate(-175.5,-115.5)"><g data-paper-data="{&quot;isPaintingLayer&quot;:true}" fill-rule="nonzero" stroke="none" stroke-linejoin="miter" stroke-miterlimit="10" stroke-dasharray="" stroke-dashoffset="0" style="mix-blend-mode: normal"><path d="M175.5,180c0,-35.62237 28.87763,-64.5 64.5,-64.5c35.62237,0 64.5,28.87763 64.5,64.5c0,35.62237 -28.87763,64.5 -64.5,64.5c-35.62237,0 -64.5,-28.87763 -64.5,-64.5z" fill="#001cb3" stroke-width="0.5" stroke-linecap="butt"/><path d="M187.64405,159.71311c0,-6.16342 4.99644,-11.15986 11.15986,-11.15986c6.16342,0 11.15986,4.99644 11.15986,11.15986c0,6.16342 -4.99644,11.15986 -11.15986,11.15986c-6.16342,0 -11.15986,-4.99644 -11.15986,-11.15986zM198.84754,168.96634c5.01907,0 9.08784,-4.06876 9.08784,-9.08784c0,-5.01907 -4.06876,-9.08784 -9.08784,-9.08784c-5.01907,0 -9.08784,4.06876 -9.08784,9.08784c0,5.01907 4.06876,9.08784 9.08784,9.08784z" fill="#0089ff" stroke-width="0.5" stroke-linecap="butt"/><path d="M276.77865,187.86257c0,-6.16342 4.99644,-11.15986 11.15986,-11.15986c6.16342,0 11.15987,4.99644 11.15987,11.15986c0,6.16342 -4.99644,11.15986 -11.15987,11.15986c-6.16343,0 -11.15986,-4.99644 -11.15986,-11.15986zM287.98213,197.1158c5.01907,0 9.08784,-4.06877 9.08784,-9.08784c0,-5.01907 -4.06877,-9.08783 -9.08784,-9.08783c-5.01907,0 -9.08783,4.06876 -9.08783,9.08783c0,5.01907 4.06876,9.08784 9.08783,9.08784z" fill="#0089ff" stroke-width="0.5" stroke-linecap="butt"/><path d="M196.8973,215.76311c0,-6.16342 4.99644,-11.15986 11.15987,-11.15986c6.16343,0 11.15987,4.99644 11.15987,11.15986c0,6.16342 -4.99644,11.15986 -11.15987,11.15986c-6.16343,0 -11.15987,-4.99644 -11.15987,-11.15986zM208.10078,225.01634c5.01907,0 9.08784,-4.06877 9.08784,-9.08784c0,-5.01907 -4.06877,-9.08783 -9.08784,-9.08783c-5.01907,0 -9.08783,4.06876 -9.08783,9.08783c0,5.01907 4.06876,9.08784 9.08783,9.08784z" fill="#0089ff" stroke-width="0.5" stroke-linecap="butt"/><path d="M254.17027,141.60689c0,-6.16342 4.99644,-11.15986 11.15986,-11.15986c6.16342,0 11.15986,4.99644 11.15986,11.15986c0,6.16342 -4.99644,11.15986 -11.15986,11.15986c-6.16342,0 -11.15986,-4.99644 -11.15986,-11.15986zM265.37376,150.86013c5.01907,0 9.08784,-4.06877 9.08784,-9.08784c0,-5.01907 -4.06877,-9.08784 -9.08784,-9.08784c-5.01908,0 -9.08784,4.06876 -9.08784,9.08784c0,5.01907 4.06876,9.08784 9.08784,9.08784z" fill="#0089ff" stroke-width="0.5" stroke-linecap="butt"/><path d="M229.54892,183.19797c0,-6.16342 4.99644,-11.15986 11.15986,-11.15986c6.16343,0 11.15987,4.99644 11.15987,11.15986c0,6.16342 -4.99644,11.15986 -11.15987,11.15986c-6.16342,0 -11.15986,-4.99644 -11.15986,-11.15986zM240.75241,192.45121c5.01907,0 9.08784,-4.06877 9.08784,-9.08784c0,-5.01907 -4.06877,-9.08784 -9.08784,-9.08784c-5.01907,0 -9.08783,4.06876 -9.08783,9.08784c0,5.01907 4.06876,9.08784 9.08783,9.08784z" fill="#0089ff" stroke-width="0.5" stroke-linecap="butt"/><path d="M240,115.5c35.62237,0 64.5,28.87763 64.5,64.5c0,35.62237 -28.87763,64.5 -64.5,64.5c-35.62237,0 -64.5,-28.87763 -64.5,-64.5c0,-35.62237 28.87763,-64.5 64.5,-64.5z" data-paper-data="{&quot;index&quot;:null}" fill="url(#color-1)" stroke-width="0.5" stroke-linecap="butt"/><path d="M240,115.5c35.62237,0 64.5,28.87763 64.5,64.5c0,35.62237 -28.87763,64.5 -64.5,64.5c-35.62237,0 -64.5,-28.87763 -64.5,-64.5c0,-35.62237 28.87763,-64.5 64.5,-64.5z" data-paper-data="{&quot;index&quot;:null}" fill="url(#color-2)" stroke-width="0.5" stroke-linecap="butt"/><g><g><path d="M183.1379,196.60157l7.625,-17.82812l-7.45312,-16.07812h5.98438l4.98438,10.73438l4.40625,-10.73437h6.15625l-7.75,16.84375l7.85938,17.0625h-5.98437l-5.32812,-11.5l-4.57812,11.5zM209.12703,196.60157v-34.01562h10.3125c3.52084,0 6.30729,0.54166 8.35938,1.625c2.05209,1.07291 3.51563,2.6875 4.39063,4.84375c0.88541,2.14584 1.32813,4.81771 1.32813,8.01563v3.98438c0,3.36459 -0.44271,6.20313 -1.32812,8.51563c-0.875,2.30209 -2.30209,4.05209 -4.28125,5.25c-1.96875,1.1875 -4.61459,1.78125 -7.9375,1.78125zM215.75203,191.85157h3.75c2.42709,0 4.14584,-0.46875 5.15625,-1.40625c1.02084,-0.9375 1.63541,-2.30729 1.84375,-4.10937c0.21875,-1.80209 0.32813,-3.97396 0.32813,-6.51562v-1.92187c0,-2.45834 -0.15625,-4.44791 -0.46875,-5.96875c-0.3125,-1.53125 -1,-2.64584 -2.0625,-3.34375c-1.05209,-0.70834 -2.70834,-1.0625 -4.96875,-1.0625h-3.57812zM238.80007,196.60157v-6.98437h6.28125v6.98438zM253.57629,196.60157l-6.6875,-33.90625h6.34375l4.15625,27.28125l4.23438,-27.28125h6.09375l-6.45312,33.90625zM283.61206,197.19532c-2.96875,0 -5.34375,-0.63541 -7.125,-1.90625c-1.78125,-1.27084 -3.07292,-3.11979 -3.875,-5.54687c-0.80208,-2.42709 -1.20312,-5.34375 -1.20312,-8.75v-2.76562c0,-3.47916 0.35938,-6.4375 1.07813,-8.875c0.72917,-2.44791 2.02083,-4.31771 3.875,-5.60937c1.86458,-1.29166 4.45833,-1.9375 7.78125,-1.9375c2.96875,0 5.35938,0.5 7.17188,1.5c1.82292,0.98959 3.14583,2.51563 3.96875,4.57813c0.82292,2.05209 1.23438,4.64063 1.23438,7.76563v1.76563h-6.21875v-1.46875c0,-2.07291 -0.14062,-3.76562 -0.42187,-5.07812c-0.27083,-1.3125 -0.82812,-2.29166 -1.67187,-2.9375c-0.83333,-0.64584 -2.15104,-0.96875 -3.95312,-0.96875c-1.94792,0 -3.36458,0.45313 -4.25,1.35938c-0.875,0.89584 -1.42187,2.11979 -1.64062,3.67188c-0.21875,1.54166 -0.32812,3.28646 -0.32812,5.23438v4.46875c0,2.27084 0.16667,4.17188 0.5,5.70313c0.33333,1.52084 0.96875,2.65625 1.90625,3.40625c0.9375,0.73959 2.27083,1.10938 4,1.10938c1.71875,0 3.04688,-0.41146 3.98438,-1.23437c0.9375,-0.82291 1.45833,-0.78646 1.8125,-2.39062c0.35417,-1.60416 0.65625,-2.64062 0.65625,-2.64062h-6.04687v-4.6875h12.01563v15.64063h-4.15625l-0.64062,-5.45312c-0.625,1.76041 -1.60417,3.20834 -2.9375,4.34375c-1.33333,1.13541 -3.17187,1.70313 -5.51562,1.70313z" fill="url(#color-3)" stroke-width="1" stroke-linecap="square"/><path d="M190.39997,207.1v-5.2h99.2v5.2z" fill="url(#color-4)" stroke-width="0" stroke-linecap="butt"/><path d="M190.39997,158.1v-5.2h99.2v5.2z" fill="url(#color-5)" stroke-width="0" stroke-linecap="butt"/></g><g><path d="M185.3379,196.60157l7.625,-17.82812l-7.45312,-16.07812h5.98438l4.98438,10.73438l4.40625,-10.73437h6.15625l-7.75,16.84375l7.85938,17.0625h-5.98437l-5.32812,-11.5l-4.57812,11.5zM211.32703,196.60157v-34.01562h10.3125c3.52084,0 6.30729,0.54166 8.35938,1.625c2.05209,1.07291 3.51563,2.6875 4.39063,4.84375c0.88541,2.14584 1.32813,4.81771 1.32813,8.01563v3.98438c0,3.36459 -0.44271,6.20313 -1.32812,8.51563c-0.875,2.30209 -2.30209,4.05209 -4.28125,5.25c-1.96875,1.1875 -4.61459,1.78125 -7.9375,1.78125zM217.95203,191.85157h3.75c2.42709,0 4.14584,-0.46875 5.15625,-1.40625c1.02084,-0.9375 1.63541,-2.30729 1.84375,-4.10937c0.21875,-1.80209 0.32813,-3.97396 0.32813,-6.51562v-1.92187c0,-2.45834 -0.15625,-4.44791 -0.46875,-5.96875c-0.3125,-1.53125 -1,-2.64584 -2.0625,-3.34375c-1.05209,-0.70834 -2.70834,-1.0625 -4.96875,-1.0625h-3.57812zM241.00007,196.60157v-6.98437h6.28125v6.98438zM255.77628,196.60157l-6.6875,-33.90625h6.34375l4.15625,27.28125l4.23438,-27.28125h6.09375l-6.45312,33.90625zM285.81205,197.19532c-2.96875,0 -5.34375,-0.63541 -7.125,-1.90625c-1.78125,-1.27084 -3.07292,-3.11979 -3.875,-5.54687c-0.80208,-2.42709 -1.20312,-5.34375 -1.20312,-8.75v-2.76562c0,-3.47916 0.35938,-6.4375 1.07813,-8.875c0.72917,-2.44791 2.02083,-4.31771 3.875,-5.60937c1.86458,-1.29166 4.45833,-1.9375 7.78125,-1.9375c2.96875,0 5.35938,0.5 7.17188,1.5c1.82292,0.98959 3.14583,2.51563 3.96875,4.57813c0.82292,2.05209 1.23438,4.64063 1.23438,7.76563v1.76563h-6.21875v-1.46875c0,-2.07291 -0.14062,-3.76562 -0.42187,-5.07812c-0.27083,-1.3125 -0.82812,-2.29166 -1.67187,-2.9375c-0.83333,-0.64584 -2.15104,-0.96875 -3.95312,-0.96875c-1.94792,0 -3.36458,0.45313 -4.25,1.35938c-0.875,0.89584 -1.42187,2.11979 -1.64062,3.67188c-0.21875,1.54166 -0.32812,3.28646 -0.32812,5.23438v4.46875c0,2.27084 0.16667,4.17188 0.5,5.70313c0.33333,1.52084 0.96875,2.65625 1.90625,3.40625c0.9375,0.73959 2.27083,1.10938 4,1.10938c1.71875,0 3.04688,-0.41146 3.98438,-1.23437c0.9375,-0.82291 1.45833,-0.78646 1.8125,-2.39062c0.35417,-1.60416 0.65625,-2.64062 0.65625,-2.64062h-6.04687v-4.6875h12.01563v15.64063h-4.15625l-0.64062,-5.45312c-0.625,1.76041 -1.60417,3.20834 -2.9375,4.34375c-1.33333,1.13541 -3.17187,1.70313 -5.51562,1.70313z" fill="url(#color-6)" stroke-width="1" stroke-linecap="square"/><path d="M192.59997,207.1v-5.2h99.2v5.2z" fill="url(#color-7)" stroke-width="0" stroke-linecap="butt"/><path d="M192.59997,158.1v-5.2h99.2v5.2z" fill="url(#color-8)" stroke-width="0" stroke-linecap="butt"/></g></g></g></g></svg>